<?xml version="1.0" standalone="no"?>
<!DOCTYPE svg PUBLIC "-//W3C//DTD SVG 1.0//EN" "http://www.w3.org/TR/2001/REC-SVG-20010904/DTD/svg10.dtd">
<svg xmlns="http://www.w3.org/2000/svg" viewBox="0 0 115 115" style="shape-rendering:crispEdges" id="qrcode1509280517410"><style>#qrcode1509280517410 .bg{fill:#ffffff}#qrcode1509280517410 .fg{fill:#000000}</style><rect class="bg" fill="none" x="0" y="0" width="115" height="115"></rect><rect class="fg" fill="none" x="5" y="5" width="5" height="5"></rect><rect class="fg" fill="none" x="10" y="5" width="5" height="5"></rect><rect class="fg" fill="none" x="15" y="5" width="5" height="5"></rect><rect class="fg" fill="none" x="20" y="5" width="5" height="5"></rect><rect class="fg" fill="none" x="25" y="5" width="5" height="5"></rect><rect class="fg" fill="none" x="30" y="5" width="5" height="5"></rect><rect class="fg" fill="none" x="35" y="5" width="5" height="5"></rect><rect class="fg" fill="none" x="45" y="5" width="5" height="5"></rect><rect class="fg" fill="none" x="55" y="5" width="5" height="5"></rect><rect class="fg" fill="none" x="60" y="5" width="5" height="5"></rect><rect class="fg" fill="none" x="65" y="5" width="5" height="5"></rect><rect class="fg" fill="none" x="75" y="5" width="5" height="5"></rect><rect class="fg" fill="none" x="80" y="5" width="5" height="5"></rect><rect class="fg" fill="none" x="85" y="5" width="5" height="5"></rect><rect class="fg" fill="none" x="90" y="5" width="5" height="5"></rect><rect class="fg" fill="none" x="95" y="5" width="5" height="5"></rect><rect class="fg" fill="none" x="100" y="5" width="5" height="5"></rect><rect class="fg" fill="none" x="105" y="5" width="5" height="5"></rect><rect class="fg" fill="none" x="5" y="10" width="5" height="5"></rect><rect class="fg" fill="none" x="35" y="10" width="5" height="5"></rect><rect class="fg" fill="none" x="55" y="10" width="5" height="5"></rect><rect class="fg" fill="none" x="60" y="10" width="5" height="5"></rect><rect class="fg" fill="none" x="75" y="10" width="5" height="5"></rect><rect class="fg" fill="none" x="105" y="10" width="5" height="5"></rect><rect class="fg" fill="none" x="5" y="15" width="5" height="5"></rect><rect class="fg" fill="none" x="15" y="15" width="5" height="5"></rect><rect class="fg" fill="none" x="20" y="15" width="5" height="5"></rect><rect class="fg" fill="none" x="25" y="15" width="5" height="5"></rect><rect class="fg" fill="none" x="35" y="15" width="5" height="5"></rect><rect class="fg" fill="none" x="45" y="15" width="5" height="5"></rect><rect class="fg" fill="none" x="50" y="15" width="5" height="5"></rect><rect class="fg" fill="none" x="60" y="15" width="5" height="5"></rect><rect class="fg" fill="none" x="75" y="15" width="5" height="5"></rect><rect class="fg" fill="none" x="85" y="15" width="5" height="5"></rect><rect class="fg" fill="none" x="90" y="15" width="5" height="5"></rect><rect class="fg" fill="none" x="95" y="15" width="5" height="5"></rect><rect class="fg" fill="none" x="105" y="15" width="5" height="5"></rect><rect class="fg" fill="none" x="5" y="20" width="5" height="5"></rect><rect class="fg" fill="none" x="15" y="20" width="5" height="5"></rect><rect class="fg" fill="none" x="20" y="20" width="5" height="5"></rect><rect class="fg" fill="none" x="25" y="20" width="5" height="5"></rect><rect class="fg" fill="none" x="35" y="20" width="5" height="5"></rect><rect class="fg" fill="none" x="45" y="20" width="5" height="5"></rect><rect class="fg" fill="none" x="50" y="20" width="5" height="5"></rect><rect class="fg" fill="none" x="65" y="20" width="5" height="5"></rect><rect class="fg" fill="none" x="75" y="20" width="5" height="5"></rect><rect class="fg" fill="none" x="85" y="20" width="5" height="5"></rect><rect class="fg" fill="none" x="90" y="20" width="5" height="5"></rect><rect class="fg" fill="none" x="95" y="20" width="5" height="5"></rect><rect class="fg" fill="none" x="105" y="20" width="5" height="5"></rect><rect class="fg" fill="none" x="5" y="25" width="5" height="5"></rect><rect class="fg" fill="none" x="15" y="25" width="5" height="5"></rect><rect class="fg" fill="none" x="20" y="25" width="5" height="5"></rect><rect class="fg" fill="none" x="25" y="25" width="5" height="5"></rect><rect class="fg" fill="none" x="35" y="25" width="5" height="5"></rect><rect class="fg" fill="none" x="45" y="25" width="5" height="5"></rect><rect class="fg" fill="none" x="60" y="25" width="5" height="5"></rect><rect class="fg" fill="none" x="75" y="25" width="5" height="5"></rect><rect class="fg" fill="none" x="85" y="25" width="5" height="5"></rect><rect class="fg" fill="none" x="90" y="25" width="5" height="5"></rect><rect class="fg" fill="none" x="95" y="25" width="5" height="5"></rect><rect class="fg" fill="none" x="105" y="25" width="5" height="5"></rect><rect class="fg" fill="none" x="5" y="30" width="5" height="5"></rect><rect class="fg" fill="none" x="35" y="30" width="5" height="5"></rect><rect class="fg" fill="none" x="50" y="30" width="5" height="5"></rect><rect class="fg" fill="none" x="55" y="30" width="5" height="5"></rect><rect class="fg" fill="none" x="60" y="30" width="5" height="5"></rect><rect class="fg" fill="none" x="65" y="30" width="5" height="5"></rect><rect class="fg" fill="none" x="75" y="30" width="5" height="5"></rect><rect class="fg" fill="none" x="105" y="30" width="5" height="5"></rect><rect class="fg" fill="none" x="5" y="35" width="5" height="5"></rect><rect class="fg" fill="none" x="10" y="35" width="5" height="5"></rect><rect class="fg" fill="none" x="15" y="35" width="5" height="5"></rect><rect class="fg" fill="none" x="20" y="35" width="5" height="5"></rect><rect class="fg" fill="none" x="25" y="35" width="5" height="5"></rect><rect class="fg" fill="none" x="30" y="35" width="5" height="5"></rect><rect class="fg" fill="none" x="35" y="35" width="5" height="5"></rect><rect class="fg" fill="none" x="45" y="35" width="5" height="5"></rect><rect class="fg" fill="none" x="55" y="35" width="5" height="5"></rect><rect class="fg" fill="none" x="65" y="35" width="5" height="5"></rect><rect class="fg" fill="none" x="75" y="35" width="5" height="5"></rect><rect class="fg" fill="none" x="80" y="35" width="5" height="5"></rect><rect class="fg" fill="none" x="85" y="35" width="5" height="5"></rect><rect class="fg" fill="none" x="90" y="35" width="5" height="5"></rect><rect class="fg" fill="none" x="95" y="35" width="5" height="5"></rect><rect class="fg" fill="none" x="100" y="35" width="5" height="5"></rect><rect class="fg" fill="none" x="105" y="35" width="5" height="5"></rect><rect class="fg" fill="none" x="60" y="40" width="5" height="5"></rect><rect class="fg" fill="none" x="65" y="40" width="5" height="5"></rect><rect class="fg" fill="none" x="5" y="45" width="5" height="5"></rect><rect class="fg" fill="none" x="10" y="45" width="5" height="5"></rect><rect class="fg" fill="none" x="15" y="45" width="5" height="5"></rect><rect class="fg" fill="none" x="20" y="45" width="5" height="5"></rect><rect class="fg" fill="none" x="35" y="45" width="5" height="5"></rect><rect class="fg" fill="none" x="45" y="45" width="5" height="5"></rect><rect class="fg" fill="none" x="50" y="45" width="5" height="5"></rect><rect class="fg" fill="none" x="55" y="45" width="5" height="5"></rect><rect class="fg" fill="none" x="60" y="45" width="5" height="5"></rect><rect class="fg" fill="none" x="65" y="45" width="5" height="5"></rect><rect class="fg" fill="none" x="70" y="45" width="5" height="5"></rect><rect class="fg" fill="none" x="85" y="45" width="5" height="5"></rect><rect class="fg" fill="none" x="90" y="45" width="5" height="5"></rect><rect class="fg" fill="none" x="95" y="45" width="5" height="5"></rect><rect class="fg" fill="none" x="105" y="45" width="5" height="5"></rect><rect class="fg" fill="none" x="10" y="50" width="5" height="5"></rect><rect class="fg" fill="none" x="25" y="50" width="5" height="5"></rect><rect class="fg" fill="none" x="30" y="50" width="5" height="5"></rect><rect class="fg" fill="none" x="55" y="50" width="5" height="5"></rect><rect class="fg" fill="none" x="60" y="50" width="5" height="5"></rect><rect class="fg" fill="none" x="65" y="50" width="5" height="5"></rect><rect class="fg" fill="none" x="85" y="50" width="5" height="5"></rect><rect class="fg" fill="none" x="90" y="50" width="5" height="5"></rect><rect class="fg" fill="none" x="105" y="50" width="5" height="5"></rect><rect class="fg" fill="none" x="5" y="55" width="5" height="5"></rect><rect class="fg" fill="none" x="10" y="55" width="5" height="5"></rect><rect class="fg" fill="none" x="15" y="55" width="5" height="5"></rect><rect class="fg" fill="none" x="25" y="55" width="5" height="5"></rect><rect class="fg" fill="none" x="30" y="55" width="5" height="5"></rect><rect class="fg" fill="none" x="35" y="55" width="5" height="5"></rect><rect class="fg" fill="none" x="40" y="55" width="5" height="5"></rect><rect class="fg" fill="none" x="45" y="55" width="5" height="5"></rect><rect class="fg" fill="none" x="50" y="55" width="5" height="5"></rect><rect class="fg" fill="none" x="55" y="55" width="5" height="5"></rect><rect class="fg" fill="none" x="60" y="55" width="5" height="5"></rect><rect class="fg" fill="none" x="70" y="55" width="5" height="5"></rect><rect class="fg" fill="none" x="80" y="55" width="5" height="5"></rect><rect class="fg" fill="none" x="95" y="55" width="5" height="5"></rect><rect class="fg" fill="none" x="100" y="55" width="5" height="5"></rect><rect class="fg" fill="none" x="105" y="55" width="5" height="5"></rect><rect class="fg" fill="none" x="5" y="60" width="5" height="5"></rect><rect class="fg" fill="none" x="10" y="60" width="5" height="5"></rect><rect class="fg" fill="none" x="20" y="60" width="5" height="5"></rect><rect class="fg" fill="none" x="25" y="60" width="5" height="5"></rect><rect class="fg" fill="none" x="50" y="60" width="5" height="5"></rect><rect class="fg" fill="none" x="60" y="60" width="5" height="5"></rect><rect class="fg" fill="none" x="80" y="60" width="5" height="5"></rect><rect class="fg" fill="none" x="85" y="60" width="5" height="5"></rect><rect class="fg" fill="none" x="90" y="60" width="5" height="5"></rect><rect class="fg" fill="none" x="105" y="60" width="5" height="5"></rect><rect class="fg" fill="none" x="10" y="65" width="5" height="5"></rect><rect class="fg" fill="none" x="15" y="65" width="5" height="5"></rect><rect class="fg" fill="none" x="20" y="65" width="5" height="5"></rect><rect class="fg" fill="none" x="25" y="65" width="5" height="5"></rect><rect class="fg" fill="none" x="35" y="65" width="5" height="5"></rect><rect class="fg" fill="none" x="40" y="65" width="5" height="5"></rect><rect class="fg" fill="none" x="45" y="65" width="5" height="5"></rect><rect class="fg" fill="none" x="50" y="65" width="5" height="5"></rect><rect class="fg" fill="none" x="65" y="65" width="5" height="5"></rect><rect class="fg" fill="none" x="70" y="65" width="5" height="5"></rect><rect class="fg" fill="none" x="75" y="65" width="5" height="5"></rect><rect class="fg" fill="none" x="90" y="65" width="5" height="5"></rect><rect class="fg" fill="none" x="100" y="65" width="5" height="5"></rect><rect class="fg" fill="none" x="45" y="70" width="5" height="5"></rect><rect class="fg" fill="none" x="55" y="70" width="5" height="5"></rect><rect class="fg" fill="none" x="60" y="70" width="5" height="5"></rect><rect class="fg" fill="none" x="75" y="70" width="5" height="5"></rect><rect class="fg" fill="none" x="85" y="70" width="5" height="5"></rect><rect class="fg" fill="none" x="90" y="70" width="5" height="5"></rect><rect class="fg" fill="none" x="100" y="70" width="5" height="5"></rect><rect class="fg" fill="none" x="105" y="70" width="5" height="5"></rect><rect class="fg" fill="none" x="5" y="75" width="5" height="5"></rect><rect class="fg" fill="none" x="10" y="75" width="5" height="5"></rect><rect class="fg" fill="none" x="15" y="75" width="5" height="5"></rect><rect class="fg" fill="none" x="20" y="75" width="5" height="5"></rect><rect class="fg" fill="none" x="25" y="75" width="5" height="5"></rect><rect class="fg" fill="none" x="30" y="75" width="5" height="5"></rect><rect class="fg" fill="none" x="35" y="75" width="5" height="5"></rect><rect class="fg" fill="none" x="50" y="75" width="5" height="5"></rect><rect class="fg" fill="none" x="60" y="75" width="5" height="5"></rect><rect class="fg" fill="none" x="65" y="75" width="5" height="5"></rect><rect class="fg" fill="none" x="75" y="75" width="5" height="5"></rect><rect class="fg" fill="none" x="80" y="75" width="5" height="5"></rect><rect class="fg" fill="none" x="85" y="75" width="5" height="5"></rect><rect class="fg" fill="none" x="95" y="75" width="5" height="5"></rect><rect class="fg" fill="none" x="5" y="80" width="5" height="5"></rect><rect class="fg" fill="none" x="35" y="80" width="5" height="5"></rect><rect class="fg" fill="none" x="55" y="80" width="5" height="5"></rect><rect class="fg" fill="none" x="80" y="80" width="5" height="5"></rect><rect class="fg" fill="none" x="85" y="80" width="5" height="5"></rect><rect class="fg" fill="none" x="90" y="80" width="5" height="5"></rect><rect class="fg" fill="none" x="95" y="80" width="5" height="5"></rect><rect class="fg" fill="none" x="100" y="80" width="5" height="5"></rect><rect class="fg" fill="none" x="5" y="85" width="5" height="5"></rect><rect class="fg" fill="none" x="15" y="85" width="5" height="5"></rect><rect class="fg" fill="none" x="20" y="85" width="5" height="5"></rect><rect class="fg" fill="none" x="25" y="85" width="5" height="5"></rect><rect class="fg" fill="none" x="35" y="85" width="5" height="5"></rect><rect class="fg" fill="none" x="50" y="85" width="5" height="5"></rect><rect class="fg" fill="none" x="65" y="85" width="5" height="5"></rect><rect class="fg" fill="none" x="75" y="85" width="5" height="5"></rect><rect class="fg" fill="none" x="90" y="85" width="5" height="5"></rect><rect class="fg" fill="none" x="95" y="85" width="5" height="5"></rect><rect class="fg" fill="none" x="5" y="90" width="5" height="5"></rect><rect class="fg" fill="none" x="15" y="90" width="5" height="5"></rect><rect class="fg" fill="none" x="20" y="90" width="5" height="5"></rect><rect class="fg" fill="none" x="25" y="90" width="5" height="5"></rect><rect class="fg" fill="none" x="35" y="90" width="5" height="5"></rect><rect class="fg" fill="none" x="45" y="90" width="5" height="5"></rect><rect class="fg" fill="none" x="60" y="90" width="5" height="5"></rect><rect class="fg" fill="none" x="75" y="90" width="5" height="5"></rect><rect class="fg" fill="none" x="80" y="90" width="5" height="5"></rect><rect class="fg" fill="none" x="90" y="90" width="5" height="5"></rect><rect class="fg" fill="none" x="100" y="90" width="5" height="5"></rect><rect class="fg" fill="none" x="5" y="95" width="5" height="5"></rect><rect class="fg" fill="none" x="15" y="95" width="5" height="5"></rect><rect class="fg" fill="none" x="20" y="95" width="5" height="5"></rect><rect class="fg" fill="none" x="25" y="95" width="5" height="5"></rect><rect class="fg" fill="none" x="35" y="95" width="5" height="5"></rect><rect class="fg" fill="none" x="45" y="95" width="5" height="5"></rect><rect class="fg" fill="none" x="65" y="95" width="5" height="5"></rect><rect class="fg" fill="none" x="75" y="95" width="5" height="5"></rect><rect class="fg" fill="none" x="95" y="95" width="5" height="5"></rect><rect class="fg" fill="none" x="5" y="100" width="5" height="5"></rect><rect class="fg" fill="none" x="35" y="100" width="5" height="5"></rect><rect class="fg" fill="none" x="45" y="100" width="5" height="5"></rect><rect class="fg" fill="none" x="50" y="100" width="5" height="5"></rect><rect class="fg" fill="none" x="70" y="100" width="5" height="5"></rect><rect class="fg" fill="none" x="105" y="100" width="5" height="5"></rect><rect class="fg" fill="none" x="5" y="105" width="5" height="5"></rect><rect class="fg" fill="none" x="10" y="105" width="5" height="5"></rect><rect class="fg" fill="none" x="15" y="105" width="5" height="5"></rect><rect class="fg" fill="none" x="20" y="105" width="5" height="5"></rect><rect class="fg" fill="none" x="25" y="105" width="5" height="5"></rect><rect class="fg" fill="none" x="30" y="105" width="5" height="5"></rect><rect class="fg" fill="none" x="35" y="105" width="5" height="5"></rect><rect class="fg" fill="none" x="45" y="105" width="5" height="5"></rect><rect class="fg" fill="none" x="50" y="105" width="5" height="5"></rect><rect class="fg" fill="none" x="70" y="105" width="5" height="5"></rect><rect class="fg" fill="none" x="85" y="105" width="5" height="5"></rect><rect class="fg" fill="none" x="90" y="105" width="5" height="5"></rect></svg>
